<?xml version="1.0" encoding="utf-8"?>
<!-- Generator: Adobe Illustrator 18.0.0, SVG Export Plug-In . SVG Version: 6.00 Build 0)  -->
<!DOCTYPE svg PUBLIC "-//W3C//DTD SVG 1.1//EN" "http://www.w3.org/Graphics/SVG/1.1/DTD/svg11.dtd" [
	<!ENTITY ns_extend "http://ns.adobe.com/Extensibility/1.0/">
	<!ENTITY ns_ai "http://ns.adobe.com/AdobeIllustrator/10.0/">
	<!ENTITY ns_graphs "http://ns.adobe.com/Graphs/1.0/">
	<!ENTITY ns_vars "http://ns.adobe.com/Variables/1.0/">
	<!ENTITY ns_imrep "http://ns.adobe.com/ImageReplacement/1.0/">
	<!ENTITY ns_sfw "http://ns.adobe.com/SaveForWeb/1.0/">
	<!ENTITY ns_custom "http://ns.adobe.com/GenericCustomNamespace/1.0/">
	<!ENTITY ns_adobe_xpath "http://ns.adobe.com/XPath/1.0/">
]>
<svg version="1.1" id="Слой_1" xmlns:x="&ns_extend;" xmlns:i="&ns_ai;" xmlns:graph="&ns_graphs;"
	 xmlns="http://www.w3.org/2000/svg" xmlns:xlink="http://www.w3.org/1999/xlink" x="0px" y="0px" width="238.8px" height="238.8px"
	 viewBox="0 0 238.8 238.8" enable-background="new 0 0 238.8 238.8" xml:space="preserve">
<metadata>
	<sfw  xmlns="&ns_sfw;">
		<slices></slices>
		<sliceSourceBounds  width="171.5" height="223.8" y="-539.3" x="196.8" bottomLeftOrigin="true"></sliceSourceBounds>
	</sfw>
</metadata>
<g>
	<path fill="#FFFFFF" d="M59.3,216.9c-1.6,0-3.2-0.6-4.4-1.9c-23.9-24.3-26.8-62.1-7.2-96.2C68.2,82.9,65.6,62.2,65.5,62
		c-0.5-2.8,1-5.5,3.6-6.7c2.6-1.2,5.6-0.4,7.4,1.7c0.8,1,2.1,2.3,3.7,3.8c5.4,5.3,14.1,13.8,17.8,26.8c9.7-21.7,2.6-40.4-23.8-71
		c-1.8-2-2-5-0.6-7.3C75,7.1,77.7,6,80.3,6.6c97.7,23.5,100.3,83.7,93.4,131.8c4.6-6.8,8.9-15.2,13.1-25.2c1-2.3,3.2-3.8,5.8-3.8
		c2.5,0,4.8,1.6,5.7,3.9c14.4,37,8.8,76.6-14.3,101c-2.4,2.5-6.3,2.6-8.8,0.2c-2.5-2.4-2.6-6.3-0.2-8.8
		c16.8-17.7,22.7-45.2,16.4-72.9c-7.1,13.8-14.9,23.7-23.5,30.2c-2,1.5-4.8,1.7-7,0.3c-2.2-1.3-3.3-3.9-2.9-6.4
		c8.5-47.5,18.9-105.7-62.2-133c21.7,29.3,26.6,54.1,2.1,87.4c-1.7,2.3-4.7,3.1-7.3,2.1c-2.6-1.1-4.2-3.8-3.8-6.6
		c2.1-14.7-3.6-24.2-9.8-31.2c-1.7,11.1-6.4,27.9-18.8,49.4c-16.7,29.1-14.6,61.1,5.3,81.3c2.4,2.4,2.4,6.4-0.1,8.8
		C62.4,216.3,60.8,216.9,59.3,216.9z"/>
</g>
<g>
	<path fill="#FFFFFF" d="M162.9,230.2c-1.1,0-2.2-0.3-3.2-0.9l-84.8-50.7c-2.9-1.8-3.9-5.6-2.1-8.5c1.8-2.9,5.6-3.9,8.5-2.1
		l84.8,50.7c2.9,1.8,3.9,5.6,2.1,8.5C167,229.1,165,230.2,162.9,230.2z"/>
</g>
<g>
	<path fill="#FFFFFF" d="M78.1,230.2c-2.1,0-4.2-1.1-5.3-3c-1.8-2.9-0.8-6.7,2.1-8.5L97.7,205c2.9-1.8,6.7-0.8,8.5,2.1
		c1.8,2.9,0.8,6.7-2.1,8.5l-22.8,13.6C80.2,229.9,79.1,230.2,78.1,230.2z"/>
</g>
</svg>
