<?xml version="1.0" encoding="utf-8"?>
<!-- Generator: Adobe Illustrator 18.0.0, SVG Export Plug-In . SVG Version: 6.00 Build 0)  -->
<!DOCTYPE svg PUBLIC "-//W3C//DTD SVG 1.1//EN" "http://www.w3.org/Graphics/SVG/1.1/DTD/svg11.dtd" [
	<!ENTITY ns_extend "http://ns.adobe.com/Extensibility/1.0/">
	<!ENTITY ns_ai "http://ns.adobe.com/AdobeIllustrator/10.0/">
	<!ENTITY ns_graphs "http://ns.adobe.com/Graphs/1.0/">
	<!ENTITY ns_vars "http://ns.adobe.com/Variables/1.0/">
	<!ENTITY ns_imrep "http://ns.adobe.com/ImageReplacement/1.0/">
	<!ENTITY ns_sfw "http://ns.adobe.com/SaveForWeb/1.0/">
	<!ENTITY ns_custom "http://ns.adobe.com/GenericCustomNamespace/1.0/">
	<!ENTITY ns_adobe_xpath "http://ns.adobe.com/XPath/1.0/">
]>
<svg version="1.1" id="Слой_1" xmlns:x="&ns_extend;" xmlns:i="&ns_ai;" xmlns:graph="&ns_graphs;"
	 xmlns="http://www.w3.org/2000/svg" xmlns:xlink="http://www.w3.org/1999/xlink" x="0px" y="0px" width="238.8px" height="238.8px"
	 viewBox="0 0 238.8 238.8" enable-background="new 0 0 238.8 238.8" xml:space="preserve">
<metadata>
	<sfw  xmlns="&ns_sfw;">
		<slices></slices>
		<sliceSourceBounds  width="179.1" height="224.6" y="-540.5" x="181.4" bottomLeftOrigin="true"></sliceSourceBounds>
	</sfw>
</metadata>
<g>
	<path fill="#FFFFFF" d="M127.8,128.4l26.8-48.3c1.7-3,0.6-6.8-2.4-8.4c-3-1.7-6.8-0.6-8.4,2.4l-20.9,37.8
		c-6.6-26-16.5-37.9-17.3-38.8c-2.2-2.6-6.1-2.9-8.7-0.7c-2.6,2.2-2.9,6.1-0.7,8.7c0.2,0.3,15.9,19.5,19.4,64.2l-37.3-30.8
		c-2.6-2.2-6.5-1.8-8.7,0.8c-2.2,2.6-1.8,6.5,0.8,8.7l45.9,37.9c0.1,17.5-1.6,38.1-6.3,62.1c-0.7,3.4,1.5,6.6,4.9,7.3
		c0.4,0.1,0.8,0.1,1.2,0.1c2.9,0,5.5-2.1,6.1-5c8-40.9,7.8-72.6,4.4-96.2C127,129.6,127.4,129.1,127.8,128.4z"/>
	<path fill="#FFFFFF" d="M198.2,63.7c-1.5-16.2-9.8-31.1-23.4-41.9C158.2,8.7,136.3,3.8,116.2,8.6C98,13,83.4,24.6,74.7,41.4
		c-35.7,2.9-51.7,26.4-54.8,47.9c-3.3,23.2,7.4,44.9,25.8,53.3c1.2,12.3,5.9,22,14.1,29c11.4,9.7,26.6,11.3,35.2,11.3
		c3.8,0,6.4-0.3,6.7-0.4c3.4-0.4,5.8-3.6,5.4-6.9c-0.4-3.4-3.5-5.8-6.9-5.4c-0.2,0-19.9,2.4-32.2-8.1c-6.3-5.4-9.7-13.5-10-24.1
		c-0.1-2.6-1.8-4.9-4.2-5.7c-17.1-5.7-23.7-25.1-21.4-41.3c1.2-8.4,8.1-35.9,46.7-37.5c2.3-0.1,4.4-1.5,5.4-3.6
		c6.8-15.1,19.2-25.4,34.8-29.2c16.4-4,34.3,0.1,47.9,10.9c14,11.1,17.9,24.3,18.8,33.3c1.1,12-2.5,23.7-9.9,32.3
		c-1.8,2.1-2,5.1-0.5,7.4c6.2,9.8,9.6,25.8,3.1,39.4c-5.6,11.9-17.5,19.3-34.6,21.6c-3.4,0.4-5.8,3.6-5.3,6.9c0.4,3.4,3.6,5.8,7,5.3
		c27.2-3.5,39.1-17.5,44.3-28.6c6.8-14.5,6.1-32.7-1.7-47.5C195.8,91.1,199.4,77.5,198.2,63.7z"/>
</g>
</svg>
