<?xml version="1.0" encoding="utf-8"?>
<!-- Generator: Adobe Illustrator 18.0.0, SVG Export Plug-In . SVG Version: 6.00 Build 0)  -->
<!DOCTYPE svg PUBLIC "-//W3C//DTD SVG 1.1//EN" "http://www.w3.org/Graphics/SVG/1.1/DTD/svg11.dtd" [
	<!ENTITY ns_extend "http://ns.adobe.com/Extensibility/1.0/">
	<!ENTITY ns_ai "http://ns.adobe.com/AdobeIllustrator/10.0/">
	<!ENTITY ns_graphs "http://ns.adobe.com/Graphs/1.0/">
	<!ENTITY ns_vars "http://ns.adobe.com/Variables/1.0/">
	<!ENTITY ns_imrep "http://ns.adobe.com/ImageReplacement/1.0/">
	<!ENTITY ns_sfw "http://ns.adobe.com/SaveForWeb/1.0/">
	<!ENTITY ns_custom "http://ns.adobe.com/GenericCustomNamespace/1.0/">
	<!ENTITY ns_adobe_xpath "http://ns.adobe.com/XPath/1.0/">
]>
<svg version="1.1" id="Слой_1" xmlns:x="&ns_extend;" xmlns:i="&ns_ai;" xmlns:graph="&ns_graphs;"
	 xmlns="http://www.w3.org/2000/svg" xmlns:xlink="http://www.w3.org/1999/xlink" x="0px" y="0px" width="238.8px" height="238.8px"
	 viewBox="0 0 238.8 238.8" enable-background="new 0 0 238.8 238.8" xml:space="preserve">
<metadata>
	<sfw  xmlns="&ns_sfw;">
		<slices></slices>
		<sliceSourceBounds  width="230.8" height="229" y="-544.1" x="166.2" bottomLeftOrigin="true"></sliceSourceBounds>
	</sfw>
</metadata>
<g>
	<path fill="#FFFFFF" d="M54.4,168.8c-0.5,0-0.9-0.1-1.4-0.2c-17.6-4.1-50.5-22.1-48.9-61.4c1.6-36.9,35.7-47.7,57.4-48.7
		c3.9-14.3,18.8-52.6,65.8-52.6c50.5,0,61.7,39.3,64,53.3c17.2,4.8,43.6,20.7,43.5,54.5c-0.1,40.3-34.7,53.6-53,55.1
		c-3.4,0.3-6.5-2.3-6.8-5.8c-0.3-3.5,2.3-6.5,5.8-6.8c1.7-0.1,41.3-3.9,41.4-42.6c0.1-35.8-36.2-42.9-37.7-43.2
		c-2.9-0.5-5-3-5.1-5.9c-0.1-1.9-3.1-46.1-52.1-46.1c-46.8,0-54.3,45.3-54.6,47.2c-0.5,3.1-3.2,5.4-6.4,5.3
		c-1.9-0.1-48-0.9-49.6,36.7C15,146.3,54.1,156,55.8,156.4c3.4,0.8,5.5,4.2,4.7,7.5C59.8,166.8,57.2,168.8,54.4,168.8z"/>
</g>
<g>
	<path fill="#FFFFFF" d="M71.7,198.7c-0.6,0-1.2-0.1-1.8-0.3c-3.3-1-5.2-4.5-4.2-7.8l21.5-71.8c1-3.3,4.5-5.2,7.8-4.2
		c3.3,1,5.2,4.5,4.2,7.8l-21.5,71.8C76.9,197,74.5,198.7,71.7,198.7z"/>
</g>
<g>
	<path fill="#FFFFFF" d="M149.8,198.7c-0.6,0-1.2-0.1-1.8-0.3c-3.3-1-5.2-4.5-4.2-7.8l21.5-71.8c1-3.3,4.5-5.2,7.8-4.2
		c3.3,1,5.2,4.5,4.2,7.8l-21.5,71.8C155,197,152.5,198.7,149.8,198.7z"/>
</g>
<g>
	<path fill="#FFFFFF" d="M101,235c-0.6,0-1.1-0.1-1.7-0.2c-3.3-0.9-5.3-4.4-4.3-7.8l30.6-108c0.9-3.3,4.4-5.3,7.8-4.3
		c3.3,0.9,5.3,4.4,4.3,7.8l-30.6,108C106.3,233.2,103.8,235,101,235z"/>
</g>
</svg>
