<?xml version="1.0" encoding="utf-8"?>
<!-- Generator: Adobe Illustrator 18.0.0, SVG Export Plug-In . SVG Version: 6.00 Build 0)  -->
<!DOCTYPE svg PUBLIC "-//W3C//DTD SVG 1.1//EN" "http://www.w3.org/Graphics/SVG/1.1/DTD/svg11.dtd" [
	<!ENTITY ns_extend "http://ns.adobe.com/Extensibility/1.0/">
	<!ENTITY ns_ai "http://ns.adobe.com/AdobeIllustrator/10.0/">
	<!ENTITY ns_graphs "http://ns.adobe.com/Graphs/1.0/">
	<!ENTITY ns_vars "http://ns.adobe.com/Variables/1.0/">
	<!ENTITY ns_imrep "http://ns.adobe.com/ImageReplacement/1.0/">
	<!ENTITY ns_sfw "http://ns.adobe.com/SaveForWeb/1.0/">
	<!ENTITY ns_custom "http://ns.adobe.com/GenericCustomNamespace/1.0/">
	<!ENTITY ns_adobe_xpath "http://ns.adobe.com/XPath/1.0/">
]>
<svg version="1.1" id="Слой_1" xmlns:x="&ns_extend;" xmlns:i="&ns_ai;" xmlns:graph="&ns_graphs;"
	 xmlns="http://www.w3.org/2000/svg" xmlns:xlink="http://www.w3.org/1999/xlink" x="0px" y="0px" width="238.8px" height="238.8px"
	 viewBox="0 0 238.8 238.8" enable-background="new 0 0 238.8 238.8" xml:space="preserve">
<metadata>
	<sfw  xmlns="&ns_sfw;">
		<slices></slices>
		<sliceSourceBounds  width="232.6" height="217.8" y="-540.9" x="164.4" bottomLeftOrigin="true"></sliceSourceBounds>
	</sfw>
</metadata>
<g>
	<path fill="#FFFFFF" d="M53,178.2c-0.5,0-0.9-0.1-1.4-0.2c-17.8-4.1-51-22.3-49.3-61.9C3.9,78.9,38.3,68,60.1,67
		c4-14.4,19-53,66.4-53c51,0,62.2,39.6,64.6,53.7c17.4,4.8,43.9,20.8,43.8,54.9c-0.1,40.6-35,54.1-53.4,55.5
		c-3.5,0.3-6.5-2.3-6.8-5.8c-0.3-3.5,2.3-6.5,5.8-6.8c1.7-0.1,41.7-4,41.7-42.9c0.1-35.9-36.5-43.2-38-43.5c-2.9-0.5-5-3-5.2-5.9
		c-0.1-1.9-3.1-46.5-52.5-46.5c-47.2,0-54.8,45.7-55.1,47.6c-0.5,3.2-3.3,5.4-6.4,5.4c-2-0.1-48.4-0.9-50,37
		c-1.7,38.9,37.8,48.6,39.5,49c3.4,0.8,5.5,4.2,4.7,7.6C58.5,176.2,55.9,178.2,53,178.2z"/>
</g>
<g>
	<path fill="#FFFFFF" d="M70.5,208.4c-0.6,0-1.2-0.1-1.8-0.3c-3.3-1-5.3-4.5-4.3-7.9l21.6-72.4c1-3.4,4.5-5.3,7.9-4.3
		c3.3,1,5.3,4.5,4.3,7.9l-21.6,72.4C75.8,206.6,73.2,208.4,70.5,208.4z"/>
</g>
<g>
	<path fill="#FFFFFF" d="M149.2,208.4c-0.6,0-1.2-0.1-1.8-0.3c-3.3-1-5.3-4.5-4.3-7.9l21.6-72.4c1-3.4,4.5-5.3,7.9-4.3
		c3.3,1,5.3,4.5,4.3,7.9l-21.6,72.4C154.4,206.6,151.9,208.4,149.2,208.4z"/>
</g>
<g>
	<path fill="#FFFFFF" d="M115.9,231.8c-0.6,0-1.2-0.1-1.9-0.3c-3.3-1-5.2-4.6-4.2-7.9l12-39.2h-16.1c-2,0-3.8-0.9-5-2.5
		c-1.2-1.6-1.6-3.6-1.1-5.5l6.9-25c0.9-3.4,4.4-5.4,7.8-4.4c3.4,0.9,5.4,4.4,4.4,7.8l-4.7,17h16.4c2,0,3.9,1,5.1,2.6
		c1.2,1.6,1.6,3.7,1,5.6L122,227.4C121.1,230.1,118.6,231.8,115.9,231.8z"/>
</g>
</svg>
