<?xml version="1.0" encoding="utf-8"?>
<!-- Generator: Adobe Illustrator 18.0.0, SVG Export Plug-In . SVG Version: 6.00 Build 0)  -->
<!DOCTYPE svg PUBLIC "-//W3C//DTD SVG 1.1//EN" "http://www.w3.org/Graphics/SVG/1.1/DTD/svg11.dtd" [
	<!ENTITY ns_extend "http://ns.adobe.com/Extensibility/1.0/">
	<!ENTITY ns_ai "http://ns.adobe.com/AdobeIllustrator/10.0/">
	<!ENTITY ns_graphs "http://ns.adobe.com/Graphs/1.0/">
	<!ENTITY ns_vars "http://ns.adobe.com/Variables/1.0/">
	<!ENTITY ns_imrep "http://ns.adobe.com/ImageReplacement/1.0/">
	<!ENTITY ns_sfw "http://ns.adobe.com/SaveForWeb/1.0/">
	<!ENTITY ns_custom "http://ns.adobe.com/GenericCustomNamespace/1.0/">
	<!ENTITY ns_adobe_xpath "http://ns.adobe.com/XPath/1.0/">
]>
<svg version="1.1" id="Слой_1" xmlns:x="&ns_extend;" xmlns:i="&ns_ai;" xmlns:graph="&ns_graphs;"
	 xmlns="http://www.w3.org/2000/svg" xmlns:xlink="http://www.w3.org/1999/xlink" x="0px" y="0px" width="238.8px" height="238.8px"
	 viewBox="0 0 238.8 238.8" enable-background="new 0 0 238.8 238.8" xml:space="preserve">
<metadata>
	<sfw  xmlns="&ns_sfw;">
		<slices></slices>
		<sliceSourceBounds  width="225.2" height="151" y="-507.4" x="169.5" bottomLeftOrigin="true"></sliceSourceBounds>
	</sfw>
</metadata>
<g>
	<path fill="#FFFFFF" d="M169.8,90.1c-15.1,0-32.7-4.2-52.2-15.9c-59.8-35.7-97.4,7-99,8.9c-2.3,2.7-6.3,3-9,0.7
		c-2.7-2.3-3-6.3-0.7-9c0.4-0.5,46-52.9,115.2-11.6c59.7,35.7,95.7-6.9,97.2-8.8c2.2-2.7,6.2-3.1,9-0.9c2.7,2.2,3.1,6.2,0.9,8.9
		C230.9,62.9,208.2,90.1,169.8,90.1z"/>
</g>
<g>
	<path fill="#FFFFFF" d="M169.8,144.2c-15.1,0-32.7-4.2-52.2-15.9c-60.1-35.9-97.4,7-99,8.8c-2.3,2.7-6.3,3-9,0.8
		c-2.7-2.3-3-6.3-0.8-9c0.5-0.5,45.9-53,115.2-11.6c60,35.8,95.7-6.9,97.2-8.7c2.2-2.7,6.2-3.2,9-0.9c2.7,2.2,3.2,6.2,0.9,9
		C230.9,117,208.2,144.2,169.8,144.2z"/>
</g>
<g>
	<path fill="#FFFFFF" d="M169.8,198.3c-15.1,0-32.7-4.2-52.2-15.9c-59.8-35.7-97.4,7-99,8.9c-2.3,2.7-6.3,3-9,0.7
		c-2.7-2.3-3-6.3-0.7-9c0.4-0.5,46-52.9,115.2-11.6c60,35.9,95.7-6.9,97.2-8.7c2.2-2.7,6.2-3.2,9-0.9c2.7,2.2,3.2,6.2,0.9,9
		C230.9,171.1,208.2,198.3,169.8,198.3z"/>
</g>
</svg>
